<?xml version="1.0" encoding="utf-8"?><!-- Uploaded to: SVG Repo, www.svgrepo.com, Generator: SVG Repo Mixer Tools -->
<svg version="1.1" id="designs" xmlns="http://www.w3.org/2000/svg" xmlns:xlink="http://www.w3.org/1999/xlink" 
	 width="800px" height="800px" viewBox="0 0 32 32" xml:space="preserve">
<style type="text/css">
	.sketchy_een{fill:#111918;}
</style>
<path class="sketchy_een" d="M21.649,20.727c0.086,0.851,0.17,1.854,0.134,2.839c-0.025,0.724-0.085,1.443-0.145,2.163l-0.055,0.665
	c-0.029,0.341-0.168,0.587-0.414,0.732c-0.126,0.074-0.273,0.113-0.421,0.113c-0.074,0-0.148-0.01-0.217-0.03
	c-0.207-0.056-0.388-0.196-0.498-0.382c-0.109-0.185-0.133-0.38-0.082-0.652c0.024-0.123,0.044-0.247,0.063-0.371
	c0.201-1.76,0.184-3.626-0.05-5.551c-0.076-0.537-0.162-1.105-0.306-1.656c-0.148-0.557-0.323-1.09-0.52-1.585
	c-0.309-0.718-0.59-1.236-0.911-1.683c-0.175-0.21-0.351-0.395-0.55-0.566c-0.235-0.161-0.486-0.296-0.801-0.437
	c-0.333-0.128-0.662-0.219-1.012-0.284c-0.108-0.009-0.2-0.013-0.29-0.013c-0.082,0-0.164,0.003-0.247,0.01
	c-0.26,0.046-0.497,0.109-0.733,0.192c-0.224,0.107-0.421,0.222-0.614,0.354c-0.117,0.103-0.209,0.199-0.298,0.302
	c-0.092,0.132-0.164,0.255-0.228,0.385c-0.09,0.237-0.158,0.46-0.204,0.693c-0.018,0.259-0.009,0.495,0.013,0.733
	c0.079,0.424,0.203,0.824,0.325,1.211c0.119,0.38,0.242,0.774,0.315,1.169c0.18,0.984,0.286,1.918,0.325,2.855
	c0.045,1.04,0.029,1.967-0.052,2.832c-0.113,1.236-0.365,2.162-0.793,2.915c-0.147,0.257-0.431,0.417-0.741,0.417
	c-0.15,0-0.296-0.039-0.423-0.113c-0.401-0.235-0.538-0.757-0.305-1.165c0.075-0.132,0.144-0.263,0.208-0.398
	c0.159-0.441,0.27-0.881,0.345-1.357c0.08-0.698,0.114-1.471,0.105-2.37c-0.01-0.807-0.057-1.544-0.141-2.255
	c-0.118-0.76-0.243-1.329-0.408-1.85l-0.109-0.326c-0.055-0.161-0.11-0.321-0.155-0.484c-0.083-0.312-0.145-0.652-0.194-1.068
	c-0.127-1.04,0.198-2.124,0.869-2.901c0.574-0.669,1.479-1.151,2.482-1.321c0.228-0.038,0.454-0.058,0.679-0.058
	c0.307,0,0.616,0.038,0.919,0.112c0.458,0.111,0.919,0.279,1.411,0.515c0.494,0.235,0.894,0.517,1.19,0.837
	c0.351,0.38,0.653,0.793,0.898,1.227c0.499,0.877,0.88,1.776,1.135,2.672C21.429,18.773,21.555,19.782,21.649,20.727z M10.44,9.732
	c-0.079-0.022-0.168-0.033-0.258-0.033c-0.175,0-0.332,0.042-0.443,0.12c-0.268,0.187-0.493,0.37-0.687,0.559
	c-0.21,0.207-0.39,0.454-0.548,0.673c-0.229,0.313-0.443,0.698-0.636,1.145c-0.208,0.476-0.417,0.983-0.497,1.49
	c-0.045,0.29-0.084,0.58-0.107,0.872c-0.018,0.225,0,0.456,0.023,0.768c0.036,0.541,0.113,1.066,0.228,1.562
	c0.099,0.427,0.244,0.851,0.409,1.339c0.377,1.115,0.632,2.051,0.802,2.946c0.022,0.12,0.042,0.241,0.06,0.368
	c0.039,0.392,0.07,0.785,0.082,1.181c0.012,0.438-0.021,0.877-0.059,1.335c-0.072,0.463-0.164,0.922-0.256,1.384
	c-0.053,0.255-0.027,0.458,0.08,0.641c0.108,0.184,0.286,0.322,0.489,0.377c0.063,0.017,0.131,0.026,0.201,0.026
	c0.339,0,0.733-0.22,0.805-0.588l0.024-0.125c0.087-0.459,0.176-0.921,0.227-1.388c0.047-0.431,0.072-0.865,0.085-1.301
	c0.023-0.755-0.038-1.578-0.193-2.59c-0.12-0.776-0.33-1.549-0.534-2.297c-0.195-0.717-0.397-1.458-0.522-2.214
	c-0.056-0.456-0.113-1.057-0.056-1.687c0.07-0.378,0.177-0.757,0.332-1.166c0.215-0.469,0.441-0.868,0.7-1.232
	c0.173-0.197,0.359-0.383,0.561-0.553l0,0c0.188-0.156,0.285-0.295,0.336-0.48c0.064-0.237,0.03-0.495-0.093-0.708
	C10.869,9.951,10.668,9.796,10.44,9.732z M17.769,22.728c-0.024-0.455-0.071-0.911-0.122-1.367c-0.062-0.578-0.127-1.062-0.24-1.539
	c-0.102-0.429-0.226-0.849-0.352-1.269c-0.135-0.451-0.259-0.903-0.382-1.356l-0.049-0.178c-0.093-0.346-0.426-0.597-0.791-0.597
	c-0.071,0-0.142,0.009-0.21,0.028c-0.207,0.057-0.381,0.194-0.49,0.386c-0.109,0.192-0.138,0.411-0.081,0.617
	c0.146,0.527,0.31,1.047,0.474,1.567l0.129,0.412c0.158,0.508,0.282,1.071,0.38,1.726c0.091,0.822,0.146,1.582,0.167,2.327
	c0.021,0.677-0.019,1.396-0.125,2.265c-0.082,0.601-0.213,1.388-0.501,2.138c-0.078,0.202-0.012,0.49,0.093,0.671
	c0.117,0.199,0.31,0.347,0.531,0.408C16.274,28.99,16.352,29,16.43,29c0.399,0,0.754-0.269,0.863-0.654
	c0.23-0.809,0.369-1.717,0.435-2.857l0.02-0.317c0.022-0.351,0.044-0.702,0.054-1.054c0.015-0.41-0.006-0.82-0.026-1.231
	L17.769,22.728z M12.148,8.488c-0.103,0.176-0.13,0.389-0.077,0.585c0.052,0.19,0.179,0.355,0.35,0.453
	c0.112,0.066,0.228,0.096,0.366,0.096c0.076,0,0.154-0.009,0.235-0.023l0.209-0.036c0.295-0.051,0.591-0.102,0.891-0.143
	c0.279-0.032,0.558-0.049,0.837-0.049c0.19,0,0.379,0.008,0.583,0.026c0.496,0.096,1.041,0.253,1.676,0.485
	c0.376,0.173,0.688,0.356,0.933,0.546c0.136,0.079,0.279,0.118,0.437,0.118c0.228,0,0.451-0.092,0.61-0.251
	c0.161-0.161,0.253-0.384,0.253-0.612c0-0.2-0.083-0.477-0.238-0.597c-0.398-0.309-0.752-0.524-1.115-0.676
	c-0.419-0.178-0.847-0.319-1.309-0.432c-0.385-0.094-0.842-0.193-1.316-0.214L15.363,7.76c-0.309,0-0.627,0.05-0.935,0.099
	l-0.055,0.008l0,0.006c-0.596,0.077-1.191,0.17-1.786,0.268C12.417,8.17,12.234,8.34,12.148,8.488z M25.477,18.611
	c-0.068-0.477-0.166-0.936-0.29-1.365c-0.136-0.468-0.327-0.927-0.512-1.37c-0.228-0.55-0.451-1.027-0.683-1.459
	c-0.177-0.333-0.393-0.647-0.607-0.958l-0.198-0.289c-0.229-0.34-0.447-0.684-0.665-1.029l-0.098-0.155
	c-0.17-0.266-0.462-0.431-0.763-0.431c-0.149,0-0.291,0.039-0.423,0.116c-0.2,0.117-0.352,0.33-0.408,0.57
	c-0.051,0.22-0.019,0.435,0.093,0.606c0.197,0.298,0.4,0.592,0.604,0.886c0.161,0.233,0.322,0.466,0.48,0.701
	c0.313,0.47,0.59,0.985,0.871,1.626c0.209,0.514,0.448,1.123,0.633,1.751c0.183,0.617,0.289,1.269,0.372,1.835
	c0.242,1.962,0.29,3.578,0.151,5.09c-0.02,0.203,0.112,0.435,0.242,0.566c0.152,0.153,0.364,0.241,0.58,0.241
	c0.505,0,0.795-0.418,0.822-0.831l0.014-0.217c0.028-0.41,0.055-0.819,0.05-1.229c-0.007-0.511-0.017-1.021-0.036-1.533
	C25.675,20.734,25.63,19.674,25.477,18.611z M28.417,19.511c-0.013-0.866-0.149-1.72-0.295-2.515
	c-0.035-0.196-0.215-0.381-0.368-0.47c-0.125-0.072-0.266-0.11-0.41-0.11c-0.073,0-0.145,0.01-0.216,0.03
	c-0.202,0.054-0.376,0.189-0.482,0.373c-0.107,0.178-0.13,0.368-0.079,0.634c0.08,0.424,0.152,0.847,0.217,1.28
	c0.044,0.449,0.048,0.89,0.04,1.414l-0.006,0.44c-0.003,0.34-0.007,0.68-0.022,1.019c-0.008,0.191,0.066,0.379,0.21,0.531
	c0.156,0.164,0.377,0.261,0.591,0.261c0.21,0,0.417-0.086,0.565-0.235c0.161-0.161,0.209-0.341,0.234-0.581
	c0.033-0.286,0.03-0.573,0.027-0.862C28.422,20.721,28.421,19.871,28.417,19.511z M26.946,13.889
	c0.115-0.213,0.14-0.446,0.072-0.657c-0.057-0.176-0.125-0.346-0.194-0.516l-0.325-0.839c-0.209-0.519-0.437-1.068-0.716-1.581
	c-0.492-0.904-1.193-1.679-1.912-2.474c-0.3-0.333-0.618-0.65-1-1.017c-0.378-0.366-0.77-0.745-1.196-1.065
	c-0.398-0.299-0.871-0.504-1.29-0.685c-0.564-0.246-1.13-0.483-1.7-0.713l-0.113-0.046c-0.856-0.347-1.74-0.706-2.652-0.895
	c-0.535-0.111-1.089-0.173-1.697-0.242l-0.32-0.036c-0.407-0.045-0.812-0.091-1.222-0.116C12.59,3.003,12.5,3,12.409,3
	c-0.446,0-0.9,0.066-1.403,0.139c-0.498,0.072-0.998,0.203-1.485,0.39c-0.586,0.224-1.09,0.461-1.542,0.723
	C7.54,4.506,7.08,4.824,6.531,5.253C5.999,5.668,5.6,6.225,5.237,6.761c-0.255,0.377-0.485,0.794-0.7,1.275
	C4.261,8.643,4.049,9.201,3.89,9.742c-0.153,0.515-0.25,1.079-0.298,1.725c-0.033,0.454-0.011,0.956,0.07,1.579
	c0.084,0.629,0.165,1.195,0.301,1.752c0.082,0.336,0.175,0.669,0.268,1.004l0.152,0.552c0.082,0.303,0.155,0.607,0.229,0.911
	l0.13,0.534c0.161,0.651,0.302,1.239,0.401,1.868c0.053,0.554,0.062,1.023,0.031,1.477c-0.031,0.44-0.079,0.879-0.126,1.317
	l-0.039,0.364c-0.021,0.2,0.109,0.446,0.248,0.585c0.16,0.158,0.378,0.248,0.6,0.248c0.223,0,0.442-0.09,0.599-0.247
	c0.174-0.174,0.226-0.372,0.25-0.617l0.016-0.158c0.079-0.81,0.161-1.646,0.111-2.466c-0.05-0.831-0.202-1.655-0.348-2.452
	c-0.139-0.76-0.282-1.516-0.461-2.27c-0.167-0.707-0.34-1.472-0.469-2.274c-0.084-0.709-0.103-1.358-0.056-1.999
	c0.112-0.658,0.3-1.328,0.578-2.055c0.145-0.334,0.299-0.662,0.476-0.983C6.76,7.764,7.012,7.41,7.242,7.086
	C7.417,6.884,7.62,6.69,7.909,6.45c0.687-0.502,1.29-0.865,1.906-1.147c0.545-0.209,1.128-0.359,1.79-0.459
	c0.265-0.024,0.529-0.038,0.793-0.038c0.24,0,0.479,0.011,0.72,0.035c0.481,0.044,0.961,0.102,1.445,0.164
	c0.369,0.06,0.738,0.127,1.103,0.206c0.304,0.065,0.595,0.168,0.886,0.273l0.151,0.053c0.724,0.256,1.436,0.535,2.161,0.827
	c0.592,0.249,1.204,0.507,1.754,0.885c0.463,0.383,0.954,0.838,1.5,1.391c0.416,0.421,0.956,0.983,1.448,1.595
	c0.237,0.318,0.432,0.621,0.597,0.926c0.19,0.349,0.358,0.71,0.518,1.078c0.197,0.485,0.389,0.974,0.559,1.467
	c0.093,0.267,0.228,0.445,0.427,0.561c0.14,0.081,0.3,0.124,0.465,0.124c0.083,0,0.165-0.011,0.244-0.033
	C26.609,14.292,26.823,14.117,26.946,13.889z"/>
</svg>